<?xml version="1.0" encoding="UTF-8" standalone="no"?>
<svg xmlns="http://www.w3.org/2000/svg" viewBox="0 0 100 100" width="100" height="100">
  <circle cx="50" cy="50" r="45" fill="#FFA726" />
  <circle cx="50" cy="50" r="40" fill="#F0F3FF" />
  
  <!-- Robot face -->
  <rect x="30" y="35" width="40" height="30" rx="5" fill="#FFA726" />
  
  <!-- Eyes -->
  <rect x="35" y="42" width="10" height="6" rx="2" fill="#FFFFFF" />
  <rect x="55" y="42" width="10" height="6" rx="2" fill="#FFFFFF" />
  <rect x="37" y="44" width="6" height="2" fill="#000000" />
  <rect x="57" y="44" width="6" height="2" fill="#000000" />
  
  <!-- Mouth -->
  <rect x="40" y="55" width="20" height="2" rx="1" fill="#FFFFFF" />
  
  <!-- Lightbulb element -->
  <circle cx="50" cy="20" r="8" fill="#FFEB3B" stroke="#FFA726" stroke-width="2" />
  <path d="M46,20 A4,4 0 0 1 54,20" stroke="#FFA726" stroke-width="2" fill="none" />
  <rect x="48" y="28" width="4" height="6" fill="#FFA726" />
  
  <!-- Small rays -->
  <path d="M50,10 L50,5 M40,15 L36,12 M60,15 L64,12 M65,25 L70,25 M35,25 L30,25" 
        stroke="#FFEB3B" stroke-width="2" stroke-linecap="round" />
</svg>